<?xml version="1.0" encoding="UTF-8" standalone="no"?>
<svg
   xmlns:dc="http://purl.org/dc/elements/1.1/"
   xmlns:cc="http://creativecommons.org/ns#"
   xmlns:rdf="http://www.w3.org/1999/02/22-rdf-syntax-ns#"
   xmlns:svg="http://www.w3.org/2000/svg"
   xmlns="http://www.w3.org/2000/svg"
   xmlns:sodipodi="http://sodipodi.sourceforge.net/DTD/sodipodi-0.dtd"
   xmlns:inkscape="http://www.inkscape.org/namespaces/inkscape"
   version="1.1"
   id="Layer_1"
   x="0px"
   y="0px"
   viewBox="4.0066 116.1515 281.25 281.25"
   enable-background="new 4.0066 116.1515 2334.9934 2055.1892"
   xml:space="preserve"
   inkscape:version="0.92.0 r"
   sodipodi:docname="pirate-ship.svg"
   width="300"
   height="300"><metadata
     id="metadata9"><rdf:RDF><cc:Work
         rdf:about=""><dc:format>image/svg+xml</dc:format><dc:type
           rdf:resource="http://purl.org/dc/dcmitype/StillImage" /><dc:title></dc:title></cc:Work></rdf:RDF></metadata><defs
     id="defs7" /><sodipodi:namedview
     pagecolor="#ffffff"
     bordercolor="#666666"
     borderopacity="1"
     objecttolerance="10"
     gridtolerance="10"
     guidetolerance="10"
     inkscape:pageopacity="0"
     inkscape:pageshadow="2"
     inkscape:window-width="1366"
     inkscape:window-height="704"
     id="namedview5"
     showgrid="false"
     inkscape:zoom="0.725"
     inkscape:cx="275.86207"
     inkscape:cy="297.24138"
     inkscape:window-x="0"
     inkscape:window-y="27"
     inkscape:window-maximized="1"
     inkscape:current-layer="Layer_1" /><path
     d="m 230.70851,131.19603 c 0.28445,-0.21459 0.59761,9.7e-4 0.86962,0.12975 -0.14972,6.60136 -0.42544,13.20396 -1.05802,19.77912 -0.30443,3.28507 -0.64753,6.56766 -1.05801,9.84152 -0.0636,0.51029 -0.131,1.02057 -0.23083,1.52589 -2.66499,0.73362 -5.33746,1.44479 -8.03615,2.03992 -3.09794,0.67996 -6.23081,1.18152 -9.37863,1.56205 -2.77854,0.31566 -5.58077,0.5103 -8.37678,0.34186 -2.11352,-0.0673 -4.22831,-0.24204 -6.34309,-0.11227 -1.04677,0.11473 -2.14971,0.2358 -3.04302,0.83967 -0.94199,0.56893 -1.55708,1.53835 -1.95135,2.54146 -0.26699,0.5914 -0.0898,1.25016 -0.10607,1.87273 0.0362,4.62258 0.0924,9.24514 0.1622,13.86647 0.2857,0.12227 0.7748,0.19464 0.75107,0.60388 0.0424,1.09294 0.0187,2.18712 0.0948,3.27883 2.91951,-0.0437 5.82906,0.28072 8.72111,0.65128 2.95072,0.43419 5.92638,0.95196 8.69992,2.08982 1.09046,0.48159 2.22956,1.05928 2.91204,2.07859 0.59015,0.88335 0.45538,1.9975 0.40175,3.00186 -0.12102,1.30754 -1.15658,2.28073 -2.23455,2.89832 0.11357,0.83094 0.17217,1.85401 -0.50905,2.47036 -0.0437,0.54398 0.0274,1.08794 0.0424,1.63193 0.02,0.45041 -0.24329,0.89582 -0.0699,1.33999 0.18218,0.5552 0.02,1.14908 -0.30441,1.61571 -0.0238,0.7698 -0.267,1.51465 -0.25077,2.28696 -0.0848,0.76107 0.10349,1.52463 -0.0474,2.28321 0.4791,0.41172 0.82969,0.95072 0.99688,1.56207 2.81596,-1.02434 5.62445,-2.07361 8.44165,-3.09545 0.81844,-0.28322 1.63567,-0.58514 2.48408,-0.7698 0.53151,-0.10478 1.13161,-0.13724 1.60823,0.16968 0.68869,0.41422 0.94697,1.35869 0.63131,2.08485 -0.19713,0.43792 -0.5914,0.7411 -0.99937,0.96817 -0.62011,0.33687 -1.27886,0.59264 -1.93762,0.83717 -0.80224,5.42483 -1.5683,10.85587 -2.37803,16.27943 -0.89456,5.8665 -2.01496,11.70054 -2.6438,17.6057 -0.65003,6.1073 -1.08171,12.23704 -1.75918,18.3418 -0.42795,4.11229 -0.9607,8.21832 -1.15409,12.35057 -0.0138,0.37803 -0.0512,0.77231 0.0848,1.13786 0.26326,0.78728 0.49158,1.58702 0.75732,2.37554 1.0156,-0.79352 2.1547,-1.48722 3.44478,-1.70306 -0.0673,-0.53649 0.22709,-1.02557 0.17591,-1.55582 -0.0562,-1.41361 -0.2383,-2.82844 -0.15095,-4.24328 0.0873,-0.82595 1.42108,-1.00563 1.73547,-0.23831 0.23208,1.01933 0.0386,2.07235 0.0611,3.10667 0.0225,0.7174 -0.14348,1.4685 0.12476,2.15844 0.0935,0.24204 0.0836,0.50655 0.0961,0.76358 1.04927,0.0599 2.1123,0.11976 3.12414,0.43668 0.53648,-0.55147 0.55895,-1.36121 0.77355,-2.05864 0.27699,-0.99314 0.41672,-2.04116 0.87088,-2.97442 0.49906,-0.69619 1.72799,-0.1385 1.67683,0.67498 -0.15221,0.99065 -0.56769,1.91763 -0.87461,2.86711 -0.18216,0.62133 -0.52276,1.21896 -0.49782,1.88396 -9.6e-4,0.20836 -0.0313,0.41672 -0.0587,0.62758 1.28507,1.00061 2.29319,2.31191 3.04927,3.74796 0.59139,-0.74361 1.10666,-1.5471 1.72677,-2.26825 0.20834,-0.21212 0.42544,-0.49906 0.75731,-0.4841 0.80226,-0.004 1.31503,1.08796 0.84466,1.72553 -0.65003,0.9507 -1.57829,1.66687 -2.30194,2.5577 -0.16843,0.18465 -0.15346,0.46162 -0.0649,0.68246 0.78851,2.20461 1.24266,4.5265 1.38366,6.86212 0.75731,-0.15847 1.49095,-0.44418 2.26823,-0.50657 0.32687,-0.0249 0.64503,0.1622 0.80599,0.44792 0.22957,0.35433 0.14973,0.79476 0.11727,1.19275 8.60758,0.22208 17.19647,0.8846 25.77661,1.57954 3.36118,0.2932 6.72859,0.50405 10.08604,0.8459 2.26076,0.18716 4.50031,0.57641 6.76729,0.68497 0.90455,0.0948 1.81533,0.0549 2.72489,0.10232 1.07175,0.0587 2.09233,0.41172 3.13164,0.65127 0.70616,0.16721 1.46723,0.51155 1.78536,1.21149 0.29322,0.76357 0.31566,1.66938 -0.0536,2.41172 -0.49532,0.83094 -1.56207,0.89833 -2.41048,1.09295 0.30196,0.40923 0.14349,0.89332 -0.0512,1.31129 -0.12353,0.0486 -0.2433,0.0998 -0.35932,0.1547 0.17465,0.55523 0.29069,1.14037 0.1884,1.72428 0.11602,0.25326 0.30942,0.51777 0.2233,0.81472 -0.0673,0.16842 -0.18464,0.31066 -0.28073,0.46288 -9.6e-4,0.60887 -0.16716,1.19776 -0.41168,1.75296 0.0761,0.0337 0.22704,0.10103 0.30315,0.13599 0.15221,0.34808 0.18216,0.72989 0.15596,1.10916 0.96194,0.11227 1.93513,0.16219 2.88582,0.35809 0.39429,0.0898 0.87711,0.22708 1.03057,0.65376 0.41172,1.29506 0.0275,2.64004 -0.28572,3.91016 -0.23705,0.93825 -0.65251,1.84155 -1.26012,2.59888 -0.43793,0.51279 -1.15783,0.53525 -1.76419,0.68746 -1.41858,5.17778 -2.84714,10.35306 -4.34558,15.50964 -1.5159,5.19399 -3.09418,10.37675 -5.00684,15.44224 -1.74548,4.65251 -3.85776,9.16156 -6.18838,13.54831 -1.44979,2.78728 -3.01811,5.5109 -4.52898,8.26324 0.39299,0.12352 0.85962,0.14597 1.17902,0.43918 0.22959,0.42169 0.22959,0.92699 0.28447,1.39612 0.035,0.78601 0.0661,1.58825 -0.0898,2.3643 -0.12352,0.50031 -0.76109,0.43918 -1.15659,0.52155 -3.09669,0.17964 -6.2021,0.14347 -9.30255,0.24704 -22.41663,0.37803 -44.8333,0.70865 -67.25121,0.98064 -27.23634,0.34935 -54.47394,0.52152 -81.71403,0.47037 -3.57828,-0.0187 -7.156575,-0.005 -10.733605,-0.0736 -0.7723,-0.0686 -1.56457,-0.006 -2.3144,-0.22206 -0.38428,-0.11731 -0.4791,-0.56021 -0.50656,-0.90705 -0.0898,-1.04056 -0.1023,-2.08484 -0.11602,-3.12664 -0.0287,-0.36431 0.12726,-0.69121 0.35558,-0.95945 -2.4465,-4.36928 -4.93683,-8.71614 -7.258722,-13.15278 C 80.08,354.51547 77.575948,348.58537 75.358863,342.55918 52.557927,334.24729 29.669659,326.17493 6.853753,317.90297 5.910524,317.52868 4.928618,317.25419 4.0066,316.8275 c 0.0025,-0.81848 0.126014,-1.63194 0.31441,-2.42545 0.103554,-0.37306 0.237054,-0.82845 0.646286,-0.96196 0.858388,-0.34559 1.718025,0.15597 2.560193,0.31193 0.325638,0.035 0.734869,0.30319 1.003115,0.009 3.124135,-2.90703 6.243277,-5.81906 9.358677,-8.73484 C 24.419518,299 30.864915,292.88397 37.30906,286.76546 c 6.749826,-6.43415 13.488426,-12.88081 20.168385,-19.38732 6.581393,-6.43167 13.1266,-12.90079 19.626892,-19.41605 6.46165,-6.46662 12.927008,-12.93198 19.433548,-19.35367 7.074225,-6.94696 14.175885,-13.86646 21.220155,-20.84335 2.32813,-2.32689 4.67247,-4.63879 6.93447,-7.0318 0.14224,-0.17468 0.36432,-0.33563 0.34436,-0.58765 0.0313,-2.04242 0.0935,-4.08483 0.11473,-6.12725 0.0138,-0.43543 -0.002,-0.87211 0.0549,-1.30255 0.0288,-0.29071 0.34685,-0.39052 0.58515,-0.45913 0.83344,-0.17966 1.71678,-0.20961 2.54147,0.0313 0.22458,0.0686 0.49282,0.20712 0.50156,0.47786 0.2146,1.65563 0.3219,3.32875 0.2982,4.99937 -0.0174,1.13037 0.0474,2.26449 -0.0686,3.39112 0.393,0.15346 0.9033,0.26575 1.06425,0.71366 0.1934,0.52027 0.16221,1.08671 0.17342,1.63319 -0.0105,0.46537 0.005,0.95821 -0.20211,1.38864 -0.1859,0.36057 -0.58265,0.51279 -0.937,0.65252 0.12103,3.18777 0.0337,6.37803 0.0674,9.56828 0.0224,1.96507 -0.05,3.93137 0.0174,5.89643 7.23143,-3.16655 14.47034,-6.31688 21.70551,-9.4772 1.00935,-0.42296 2.01121,-0.89707 3.08546,-1.13038 0.70491,-0.17467 1.53334,0.0324 1.96505,0.64629 0.53898,0.68371 0.45912,1.74672 -0.18092,2.33935 -0.76357,0.72241 -1.77917,1.08298 -2.71614,1.52215 -0.82472,5.49593 -1.70806,10.98313 -2.51278,16.48404 3.15656,0.53649 6.35305,0.8821 9.5583,0.90455 0.82845,-0.63005 1.84029,-0.932 2.79848,-1.3063 8.15345,-2.98065 16.2969,-5.99249 24.45408,-8.96316 -4.48533,-0.12226 -9.03552,-0.49532 -13.29004,-2.01747 -1.05927,-0.4192 -2.19961,-0.89705 -2.85837,-1.87647 -0.54523,-0.81721 -0.50906,-1.84279 -0.43794,-2.77853 0.0674,-0.66624 0.10104,-1.34996 0.33812,-1.98127 0.17717,-0.48035 0.55523,-0.83842 0.89833,-1.20274 -0.0536,-0.53774 -0.16719,-1.06175 -0.39677,-1.54958 -0.0836,-0.54025 -0.18714,-1.19152 0.18715,-1.64817 -0.0761,-0.76481 -0.52401,-1.44478 -0.52026,-2.22082 0.0549,-0.63382 -0.56894,-1.10418 -0.44542,-1.74797 0.26576,-1.15908 -0.20087,-2.3169 -0.2046,-3.47847 -0.15597,-0.27074 -0.28198,-0.55396 -0.38303,-0.84716 -0.88958,-0.5003 -1.75921,-1.19775 -2.06863,-2.21086 -0.25575,-0.91203 -0.34809,-1.90891 -0.0661,-2.82468 0.35558,-1.03681 1.26885,-1.74173 2.17589,-2.28447 1.79164,-1.04677 3.78539,-1.68683 5.7829,-2.20834 3.07672,-0.76233 6.2258,-1.17655 9.3749,-1.49469 1.06299,-0.0811 2.1235,-0.18716 3.19026,-0.21585 9.7e-4,-1.17531 -0.0412,-2.35308 0.0173,-3.52588 0.23332,-0.36556 0.71119,-0.39552 1.09171,-0.50282 -0.15597,-14.30312 -0.31565,-28.60627 -0.47786,-42.90942 0.015,-0.58265 -0.0486,-1.1703 0.0375,-1.74921 0.57391,-0.52651 1.50342,-0.41048 2.18713,-0.16094 0.0474,0.2932 0.0848,0.58889 0.11602,0.88459 2.19713,-0.82845 4.42795,-1.61822 6.75358,-1.9975 3.48719,-0.60138 7.03179,-0.17842 10.54519,-0.17842 2.16968,0.045 4.36555,-0.0836 6.46037,-0.69244 2.70992,-0.76481 5.1441,-2.2146 7.64563,-3.46475 2.56269,-1.29134 5.1104,-2.6126 7.65064,-3.94761 m -37.96865,63.45337 c 0.0474,1.61072 0.05,3.22269 0.0886,4.83342 0.0536,0.007 0.16219,0.0224 0.21709,0.03 -0.0525,-0.90579 0.17094,-1.78788 0.30694,-2.67496 -0.0811,-0.0337 -0.24455,-0.10233 -0.32565,-0.136 -0.11978,-0.46664 -0.22957,-0.94822 -0.19214,-1.43232 0.0512,-0.33311 0.21336,-0.64503 0.20086,-0.98813 -0.0224,-0.20837 0.0749,-0.50905 -0.19585,-0.58266 -0.25081,0.25328 -0.0798,0.63756 -0.0999,0.95071 m -5.06049,-0.7698 c -0.11728,0.77854 0.38429,1.4822 0.21958,2.25577 -0.0362,0.35433 -0.0935,0.75731 -0.47036,0.90704 0.20587,0.86587 0.40799,1.74173 0.39925,2.63879 0.40425,-0.004 0.81098,-0.009 1.21896,-0.009 0.002,-1.95259 9.7e-4,-3.90392 0,-5.85401 -0.4579,0.0187 -0.91328,0.0399 -1.36743,0.0611 m 7.95257,-0.0412 c -0.11854,0.68247 0.26325,1.31877 0.14348,1.99625 -0.0724,0.38927 -0.0886,0.90705 -0.5415,1.04928 0.13101,0.8172 0.30694,1.63443 0.27824,2.46787 1.592,-0.0748 3.18152,-0.20088 4.76479,-0.38304 0.10607,-0.51777 0.23457,-1.02807 0.35309,-1.5421 -0.48782,-0.2383 -0.42046,-0.83968 -0.46413,-1.29258 -0.0523,-0.43791 0.25453,-0.80597 0.25453,-1.23641 0.0105,-0.20214 0.0138,-0.40424 0.0212,-0.60512 -1.59697,-0.2196 -3.20271,-0.35809 -4.80969,-0.45415 m -15.18024,0.99813 c 0.0313,0.38303 0.045,0.77978 0.20211,1.1391 0.25328,0.57144 0.1173,1.21023 0.006,1.80039 -0.0724,0.0312 -0.21709,0.0948 -0.28947,0.12725 0.0935,0.40798 0.20212,0.8122 0.31442,1.21646 1.54335,0.24704 3.10291,0.35808 4.66124,0.46287 -0.0337,-0.82219 0.0973,-1.63817 0.22209,-2.44789 -0.43794,-0.12728 -0.49658,-0.59887 -0.56767,-0.98065 -0.17593,-0.6725 0.21209,-1.32377 0.0748,-2.00375 -1.55457,0.11853 -3.09919,0.36556 -4.62381,0.68622 m 22.53891,-0.0786 c -0.0911,0.55521 0.21211,1.08797 0.0886,1.63942 -0.0911,0.41548 -0.11977,0.95945 -0.59388,1.12163 0.03,0.3269 0.0661,0.65378 0.0986,0.98068 1.07923,-0.20712 2.12726,-0.55147 3.15407,-0.94074 -0.0399,-0.66875 0.42047,-1.23768 0.33188,-1.9164 -1.0056,-0.36306 -2.02993,-0.67748 -3.07922,-0.88459 m -27.83772,1.70181 c 0.0424,0.47036 0.0886,0.98314 0.41297,1.35619 0.92575,0.39926 1.9189,0.61386 2.88707,0.8846 0.0313,-0.1884 0.0624,-0.37555 0.0973,-0.56144 -0.5053,-0.14224 -0.55021,-0.71368 -0.65128,-1.14411 -0.13352,-0.52527 0.15221,-1.04054 0.0562,-1.5708 -0.95693,0.27822 -1.90891,0.59138 -2.80224,1.03556 m 28.24447,6.21707 c -0.0599,0.48908 -0.0117,0.97816 0.0911,1.4585 -0.035,0.5627 -0.12102,1.20649 -0.59762,1.5758 0.12726,0.67374 0.20212,1.36244 0.12726,2.04741 -0.0774,0.50156 0.19838,0.96568 0.18465,1.46723 0.55273,0.10608 1.10667,0.20962 1.65938,0.32689 0.0424,-0.44041 0.0986,-0.88583 0.0163,-1.32375 -0.10361,-0.59763 0.0786,-1.19277 0.30069,-1.74049 0.0786,-0.0238 0.23704,-0.0724 0.31565,-0.0973 -0.11357,-0.83468 -0.18467,-1.6806 -0.0761,-2.52027 0.0724,-0.53774 -0.18964,-1.05054 -0.14347,-1.58952 -0.62133,0.15097 -1.25389,0.25827 -1.87772,0.39551 m -26.93817,0.0736 c 0.34935,0.64005 0.4055,1.56083 -0.0636,2.15346 0.20586,0.68746 0.45166,1.37117 0.48285,2.09732 0.009,0.57516 0.54646,1.03056 0.39801,1.63068 -0.12477,0.46288 -0.1385,0.94073 -0.0486,1.41359 0.65751,-0.15969 1.31752,-0.3169 1.98751,-0.42795 -0.0499,-0.60136 -0.009,-1.23267 -0.25951,-1.79661 -0.23457,-0.55522 -0.10736,-1.17156 -0.015,-1.74299 0.0748,-0.035 0.22208,-0.10479 0.29694,-0.13848 -0.26575,-0.91454 -0.53898,-1.8378 -0.54398,-2.7985 -0.74984,-0.1035 -1.48972,-0.262 -2.23456,-0.39052 m 20.05234,0.83344 c -0.0562,0.48408 0.0536,0.95446 0.15471,1.42233 -0.035,0.53025 -0.0636,1.15532 -0.52402,1.50717 0.12976,0.67124 0.24454,1.34871 0.23581,2.03493 1.10168,0.0549 2.20709,0.11474 3.30379,0.24578 0.0611,-0.51278 0.15097,-1.0393 0.0274,-1.54833 -0.16969,-0.60512 0.0187,-1.22519 0.19088,-1.80661 0.0774,-0.0324 0.23332,-0.0973 0.31068,-0.12976 -0.0673,-0.70243 -0.18466,-1.40112 -0.19214,-2.10854 -1.16405,0.16843 -2.3356,0.29195 -3.50717,0.38303 m -86.80575,13.45846 c -6.6812,6.42293 -13.346195,12.86461 -19.918855,19.39733 -6.900793,6.8671 -13.811567,13.72423 -20.71485,20.58635 -10.147198,10.02244 -20.313107,20.02614 -30.581328,29.9263 -6.462832,6.22328 -12.963127,12.40668 -19.438467,18.61876 -3.059254,2.92076 -6.143463,5.81532 -9.2139466,8.72361 0.3842766,0.0998 0.7660606,0.20711 1.1465966,0.32066 7.837782,-6.27447 15.785356,-12.40922 23.553268,-18.77101 7.613208,-6.2096 15.12161,-12.55143 22.410421,-19.14155 6.903284,-6.22456 13.594474,-12.68244 20.114729,-19.30874 6.467848,-6.59512 12.824667,-13.29754 19.102887,-20.07481 6.587625,-7.0792 12.914495,-14.4017 18.978115,-21.93505 2.93074,-3.60822 5.77414,-7.28506 8.6762,-10.91574 -0.0117,-0.39052 -0.0174,-0.7798 -0.0174,-1.16783 -4.60634,4.67373 -9.36739,9.19273 -14.09726,13.7417 m 72.23708,-13.48477 c 0.31067,0.81471 0.5028,1.81533 -0.0324,2.58139 0.045,0.33812 0.17591,0.65877 0.24579,0.99315 0.17716,0.64254 0.0117,1.36617 0.42296,1.93885 1.0605,-0.15845 2.12973,-0.2408 3.19526,-0.36057 -0.0737,-0.58891 0.015,-1.20648 -0.20088,-1.76919 -0.19465,-0.48783 -0.0836,-1.02182 -0.007,-1.52088 0.005,-0.21336 0.22084,-0.29571 0.35933,-0.41672 -0.0998,-0.39926 -0.19587,-0.7985 -0.27823,-1.20026 -1.23516,-0.0848 -2.47036,-0.16469 -3.70429,-0.24577 m 10.98565,0.25077 c 0.007,0.39302 0.015,0.78603 0.02,1.18028 0.12601,-0.0524 0.25079,-0.10607 0.38301,-0.15721 -0.0549,-0.34558 -0.12102,-0.6887 -0.18465,-1.0318 -0.0549,0.002 -0.16343,0.006 -0.21832,0.009 m 15.28503,1.9139 c 0.045,-0.20587 0.0886,-0.41048 0.1385,-0.61386 -0.0848,-0.31067 -0.15222,-0.62507 -0.22456,-0.93573 -2e-5,0.51777 0.0411,1.03306 0.0862,1.54959 m -95.10766,22.26943 c 1.11666,-0.40424 2.18341,-0.93449 3.2801,-1.38864 2.67996,-1.15908 5.34994,-2.34061 8.03365,-3.48719 0.0587,-2.67 0.12102,-5.33999 0.16221,-8.00997 0.10607,-3.19773 0.0375,-6.40422 0.30691,-9.59698 -0.18838,-0.0673 -0.37678,-0.13724 -0.56269,-0.20587 -3.77042,7.54709 -7.61569,15.05924 -11.22018,22.68865 m 75.6754,-21.3574 c 0.0998,0.41548 0.19464,0.83219 0.27823,1.25266 -0.005,-0.49657 9.6e-4,-0.99188 0.005,-1.48721 -0.0974,0.0761 -0.19091,0.15472 -0.28322,0.23455 m -14.65001,0.33189 c -0.0973,0.0998 -0.0661,0.40299 0.11602,0.37054 0.10104,-0.10103 0.0486,-0.39425 -0.11602,-0.37054 m -27.68792,58.6698 c -0.55147,6.38926 -0.77729,12.80219 -0.8534,19.21392 -0.0849,3.61321 -0.0935,7.22768 -0.0386,10.84213 0.76605,-0.0536 1.61696,-0.20962 2.30692,0.22957 0.6912,0.40549 0.95445,1.32128 0.72862,2.06613 -0.2121,0.61384 -0.77603,1.02807 -1.36743,1.24141 -1.01684,0.36183 -2.09107,0.51653 -3.14783,0.71866 -4.76357,0.85589 -9.51588,1.77168 -14.28069,2.62134 0.0174,2.11726 0.007,4.23704 0.0562,6.35556 0.0836,6.64751 0.10232,13.29627 0.0911,19.94504 6.70739,0.0761 13.41605,0.22085 20.11846,0.51155 1.09045,0.0911 2.2096,0.0649 3.26887,0.37181 0.51777,0.12725 0.76605,0.64629 0.83593,1.13411 0.25078,1.46849 0.31692,3.06676 -0.38302,4.43043 3.33873,0.0337 6.67871,0.13724 10.0162,0.0973 1.34495,-0.62633 2.5739,-1.48968 3.79787,-2.32438 4.9956,-3.53836 9.35993,-7.86398 13.66931,-12.18713 -1.25763,-0.0523 -2.51774,-0.0997 -3.76665,-0.25326 -0.35684,-0.0649 -0.80724,-0.14098 -0.9632,-0.51777 -0.42796,-0.92327 -0.26202,-1.98502 -0.002,-2.93075 0.26076,-0.98316 0.71739,-1.90393 1.22519,-2.78104 0.29943,-0.56644 1.00186,-0.62507 1.55085,-0.79973 1.35995,-0.41673 2.79474,-0.33312 4.19587,-0.46038 1.82159,-0.035 3.64564,-0.0324 5.46722,0.0412 -0.0163,-1.21647 0.0774,-2.43667 -0.0524,-3.64816 0.0562,-0.9794 0.20961,-1.98875 -0.0249,-2.95444 -6.93322,1.00562 -13.86397,2.0287 -20.7947,3.04802 -0.99188,0.10736 -2.02122,0.39551 -3.00562,0.11356 -0.92075,-0.26575 -1.30253,-1.51464 -0.74859,-2.27448 0.44418,-0.62008 1.24641,-0.75858 1.94011,-0.91703 -3.29382,-3.06675 -6.7124,-6.03742 -9.55331,-9.54582 -1.52714,-1.90017 -2.79974,-4.01747 -3.65564,-6.30566 -0.97568,-2.51028 -1.40487,-5.19274 -1.62444,-7.86522 -0.26326,-3.06799 -0.1959,-6.14969 -0.0274,-9.21895 0.18466,-2.98438 0.54024,-5.95879 1.12414,-8.89204 1.00936,-5.05676 2.73361,-9.92761 4.33312,-14.81842 1.64316,-5.063 3.27385,-10.13097 4.95944,-15.18024 -0.51155,0.0375 -1.09046,0.13974 -1.53338,-0.18591 -0.38677,-0.25201 -0.56643,-0.69867 -0.64129,-1.13536 -3.09794,-0.0599 -6.18588,-0.39427 -9.24264,-0.89333 -1.53838,11.00803 -3.04553,22.02858 -3.97753,33.10779 m 73.59429,17.16276 c -0.0736,0.46913 0.0462,1.03555 -0.31814,1.41109 0.096,0.8796 0.28197,1.75296 0.26949,2.6438 -0.015,0.30818 0.17094,0.57267 0.22831,0.87087 -0.006,0.21958 -0.12351,0.4167 -0.19961,0.62133 0.0587,1.00687 -0.0986,2.005 -0.16969,3.00685 0.0774,0.0212 0.23207,0.0624 0.30942,0.0824 0.0636,-0.47411 0.12726,-0.94822 0.21959,-1.41609 0.0924,-0.51778 0.32314,-1.01433 0.2695,-1.54958 -0.0636,-0.47287 0.43044,-0.74111 0.50155,-1.18153 0.19212,-0.72989 0.56393,-1.3899 0.82595,-2.09109 -0.004,-0.43917 -0.0462,-0.88085 0.0549,-1.31377 -0.59886,-0.46664 -1.24765,-0.89331 -1.99125,-1.08423 m -3.84278,2.79477 c 0.0288,0.31815 0.0249,0.64006 0.0574,0.96071 0.0986,0.28196 0.27322,0.53149 0.41046,0.79849 0.27699,0.48659 0.39176,1.063 0.77979,1.48719 0.26326,0.27825 0.11978,0.68746 0.22832,1.02559 0.11602,0.39425 0.25204,0.78601 0.34436,1.18901 0.14846,0.009 0.29942,0.0187 0.45415,0.0313 -0.14597,-0.89331 -0.27575,-1.79413 -0.26078,-2.70117 -0.27573,-0.39301 -0.24704,-0.86962 -0.015,-1.27136 -0.0824,-0.96569 0.0924,-1.92513 0.16596,-2.88459 -0.10853,-0.14973 -0.21212,-0.30194 -0.30943,-0.4529 -0.70617,0.51029 -1.33001,1.12413 -1.85527,1.81784 m 7.18151,-0.19339 c -0.11473,0.54522 -0.17967,1.10042 -0.2882,1.64816 -0.0924,0.47661 -0.30317,0.93574 -0.25826,1.43356 0.0873,0.47661 -0.40051,0.75357 -0.4891,1.18777 -0.20709,0.76605 -0.59262,1.4635 -0.87084,2.20336 0.14223,0.2695 0.14223,0.57392 0.16217,0.87336 0.48284,-0.60886 0.93575,-1.25265 1.24643,-1.96631 0.64379,-0.3718 1.09295,-0.97316 1.66687,-1.43606 0.34559,-0.30192 0.54897,-0.84715 0.3119,-1.2701 -0.40672,-0.932 -0.82094,-1.89145 -1.48097,-2.67374 m -8.40921,2.01873 c -0.30192,0.57889 -0.62506,1.15656 -0.81221,1.78537 0.007,0.63008 0.11729,1.25638 0.13849,1.88896 0.61635,-0.0673 1.22893,-0.17218 1.85153,-0.17342 -0.1111,-0.43045 -0.40425,-0.75858 -0.63756,-1.11791 -0.007,-0.82843 -0.35683,-1.58825 -0.54025,-2.383 m -123.270625,2.51772 c -0.65752,7.0842 -0.23331,14.24576 0.97941,21.24886 0.50655,2.97316 1.15408,5.91886 1.71927,8.88207 1.13662,0.66125 2.12226,1.55457 3.25763,2.22082 4.217095,2.54895 8.756075,4.49904 13.281315,6.42294 0.52777,0.26326 1.13287,0.13474 1.69931,0.15222 3.39613,0.002 6.79225,-0.0486 10.18837,-0.015 0.0748,-8.34433 0.28322,-16.68867 0.37679,-25.03424 -6.22457,1.12788 -12.43788,2.32314 -18.65872,3.46974 -0.9532,0.14596 -1.95132,0.45166 -2.90329,0.15472 -0.86213,-0.2695 -1.31129,-1.36121 -0.88583,-2.15845 0.33437,-0.69494 1.11291,-0.9582 1.80037,-1.15783 -0.8247,-1.07298 -1.68684,-2.11728 -2.552714,-3.15656 -1.519651,-1.79787 -3.197741,-3.45602 -4.676221,-5.29006 -1.43107,-1.76174 -2.61758,-3.70932 -3.62569,-5.73925 m 132.884215,2.3144 c -0.73487,0.42296 -1.2302,1.12788 -1.90018,1.63567 0.16843,0.47787 0.32189,0.9607 0.44291,1.45354 0.58016,-0.0636 1.05052,-0.5752 1.65564,-0.43545 0.48658,0.0512 0.97816,0.0313 1.46848,0.0324 -0.0624,-1.47721 -0.28072,-2.94322 -0.59762,-4.38549 -0.41546,0.53152 -0.80347,1.08046 -1.06923,1.6993 m -116.83559,0.32813 c -1.47099,0.15472 -2.9607,0.41047 -4.30318,1.06052 -0.90954,0.44041 -1.7517,1.10293 -2.21334,2.01995 -0.52028,1.00311 -0.52153,2.20459 -0.21583,3.27384 0.52525,1.83905 1.66186,3.4136 2.78974,4.927 6.49406,-1.27885 12.99311,-2.53148 19.48093,-3.8353 0.0187,-2.16343 0.0437,-4.3281 0.10232,-6.49031 -1.95755,-0.29195 -3.92261,-0.53026 -5.89017,-0.73114 -3.23766,-0.30063 -6.50278,-0.52649 -9.75042,-0.22456 m 21.98994,1.95385 c 0.0117,1.40984 0.006,2.81972 0.03,4.22955 3.68557,-0.74484 7.3749,-1.47723 11.06672,-2.18714 -3.69806,-0.68747 -7.39111,-1.39489 -11.09666,-2.04241 m 42.55881,1.6993 c -0.80473,0.39677 -1.50465,1.01683 -1.95505,1.79788 -0.52901,0.88583 -0.74611,1.9089 -0.95197,2.90829 -0.36432,1.76543 -0.70992,3.53461 -1.06175,5.30254 5.65063,-0.89456 11.30876,-1.74921 16.9569,-2.66002 0.13226,-0.37428 0.0636,-0.89332 0.46289,-1.11665 1.01684,-0.51029 2.15221,-0.6937 3.27385,-0.81347 -0.015,-1.85276 -0.0163,-3.70554 -0.0574,-5.55706 -4.17217,-0.46038 -8.36805,-0.97565 -12.57389,-0.77605 -1.39614,0.0961 -2.82845,0.27448 -4.09358,0.91454 m 52.37914,0.8746 c -0.48037,-0.0673 -0.96321,-0.10736 -1.44479,-0.0723 -0.0512,0.62508 -0.18341,1.24016 -0.29819,1.85652 0.47785,0.24203 0.88959,0.60387 1.39489,0.79974 0.19214,0.0712 0.37678,0.18215 0.48035,0.37305 0.23331,0.40798 0.58766,0.72114 0.9058,1.06424 0.30193,-1.5134 0.51528,-3.04676 0.53774,-4.59137 -0.55022,0.12477 -1.05304,0.38053 -1.5758,0.57018 m -29.6019,-0.19088 c 0.0362,1.60324 0.0712,3.20774 0.0973,4.8122 0.75858,0.005 1.52713,0.11727 2.2807,-0.0375 3.72178,-0.58265 7.44354,-1.17528 11.16902,-1.73673 -0.004,-0.12102 -0.0105,-0.36057 -0.0138,-0.48159 -0.59639,0.13474 -1.17779,0.33687 -1.78542,0.41672 -0.31315,0.0486 -0.66625,-0.0549 -0.83967,-0.32938 -0.22582,-0.2957 -0.2096,-0.67998 -0.21335,-1.02932 -3.56079,-0.56772 -7.12659,-1.1017 -10.6949,-1.61447 m 37.97619,4.06984 c -0.12975,0.0224 -0.25703,0.0474 -0.38179,0.0748 0.17466,0.55146 0.33812,1.11289 0.33688,1.69932 1.2015,0.0287 2.40299,0.0798 3.60572,0.11227 0.0986,-0.48161 0.22583,-0.95447 0.36932,-1.42358 -0.0924,-0.0187 -0.27699,-0.0574 -0.36932,-0.0774 -0.13225,-0.33062 -0.19463,-0.68246 -0.20585,-1.0343 -1.04056,-0.0761 -2.08236,-0.10607 -3.12289,-0.17093 -0.0712,0.2745 -0.14973,0.54648 -0.23207,0.81971 m -11.26874,-0.16345 c -0.2358,0.62883 0.26575,1.13538 0.50655,1.67187 0.85464,0.0237 1.7093,0.05 2.56517,0.0462 -0.52901,-0.37679 -1.07798,-0.7199 -1.66935,-0.98315 -0.30317,-0.42545 -0.60263,-0.8559 -1.00187,-1.19651 -0.136,0.15222 -0.26701,0.30693 -0.4005,0.46163 m 8.34432,-0.40548 c -0.12851,0.75482 -0.27196,1.50717 -0.44539,2.25328 0.21834,0.002 0.44042,0.006 0.66373,0.0138 0.0462,-0.56644 0.18342,-1.11666 0.3793,-1.64817 -0.0824,-0.015 -0.24455,-0.0436 -0.32565,-0.0587 -0.0935,-0.18965 -0.18465,-0.3743 -0.27199,-0.56021 m 9.41233,0.0986 c -0.0549,0.2907 -0.12103,0.5814 -0.2121,0.86462 -0.136,0.0437 -0.27074,0.0911 -0.40051,0.13973 0.16094,0.45415 0.28945,0.92203 0.33812,1.40486 1.15658,0.0662 2.31691,0.0886 3.47597,0.10607 0.0786,-0.3693 0.17967,-0.73237 0.27949,-1.09542 -0.55772,-0.14223 -0.539,-0.80226 -0.544,-1.25889 -0.98064,-0.0313 -1.95757,-0.12227 -2.93697,-0.16095 m 6.05613,0.35934 c -0.0562,0.41547 -0.0761,0.99312 -0.59263,1.08545 0.10103,0.3743 0.20586,0.7486 0.30568,1.12663 1.12786,0.0587 2.2545,-0.0723 3.38364,-0.0549 0.0674,-0.23082 0.13849,-0.45664 0.21084,-0.68248 -0.0873,-0.0249 -0.26075,-0.0736 -0.34807,-0.0986 -0.1622,-0.38552 -0.29944,-0.81346 -0.0986,-1.21272 -0.95572,-0.0261 -1.90768,-0.11851 -2.86089,-0.16343 m 5.83154,0.35558 c -0.0117,0.44791 -0.0288,1.06175 -0.57017,1.18527 0.0562,0.19214 0.11852,0.38802 0.1809,0.58389 1.05555,-0.0461 2.09983,-0.21709 3.15286,-0.30066 -0.13727,-0.42047 -0.3032,-0.91953 0.0199,-1.29757 -0.93076,-0.035 -1.85653,-0.12351 -2.78354,-0.17093 m 5.61821,0.36182 c -0.002,0.23706 -0.005,0.47785 -0.007,0.71865 0.60513,-0.0574 1.20775,-0.14974 1.81409,-0.21709 0.31317,-0.0499 0.66377,-0.0437 0.91205,-0.27948 -0.90206,-0.12352 -1.81284,-0.14971 -2.71865,-0.22208 m -36.72727,0.44041 c -0.11099,0.0886 -0.0974,0.39052 0.0848,0.37555 0.10982,-0.0924 0.0811,-0.38927 -0.0848,-0.37555 m 57.01045,2.32689 c -0.035,0.065 -0.10361,0.1934 -0.13726,0.25829 -0.0823,0.0125 -0.24579,0.0399 -0.32812,0.0523 0.22207,0.60762 0.3618,1.24518 0.30942,1.8977 0.33061,0.35684 0.34309,0.89705 -0.002,1.25139 0.05,0.6463 -0.0961,1.28009 -0.32566,1.88273 0.0911,0.0199 0.27327,0.0587 0.36433,0.0786 0.14349,0.35183 0.21212,0.72738 0.18093,1.11164 0.26574,0.0261 0.53399,0.0549 0.80597,0.0836 0.04,-0.44291 0.10982,-0.98565 0.60389,-1.14535 -0.18341,-0.56643 -0.24082,-1.16281 -0.18341,-1.75295 -0.0886,-0.16968 -0.19964,-0.32939 -0.23581,-0.51279 -0.0536,-0.29694 0.1784,-0.52154 0.32066,-0.75234 -0.0163,-0.60136 0.1597,-1.17529 0.38053,-1.72676 -0.0748,-0.0324 -0.22584,-0.0986 -0.30072,-0.131 -0.0711,-0.25203 -0.13847,-0.5028 -0.19585,-0.75234 -0.42298,0.0375 -0.84094,0.0873 -1.25641,0.1572 m -4.9195,0.63882 c 0.0512,0.37429 0.0761,0.75358 0.0798,1.13412 0.32565,0.36182 0.31816,0.85341 -0.004,1.21771 0.0236,0.64753 -0.11227,1.28633 -0.3481,1.88895 0.12352,0.0437 0.25078,0.0898 0.38179,0.13849 0.13726,0.35059 0.18342,0.72613 0.15971,1.10418 0.19089,0.007 0.38679,0.0187 0.58389,0.0313 -0.18466,-0.58265 -0.26823,-1.19151 -0.20959,-1.79912 -0.28572,-0.38301 -0.25828,-0.88958 0.0898,-1.22145 -0.005,-0.59512 0.15347,-1.17154 0.40175,-1.70678 -0.11728,-0.0724 -0.23081,-0.14224 -0.34061,-0.20963 -0.0611,-0.23207 -0.12103,-0.46287 -0.17592,-0.68994 -0.21211,0.0324 -0.41424,0.0735 -0.61884,0.11228 m -4.96943,0.61384 c 0.13227,0.22084 0.33561,0.4317 0.32687,0.70991 -0.0624,0.29819 -0.30942,0.54149 -0.28072,0.86464 -0.004,0.56895 -0.15222,1.1204 -0.3456,1.65315 0.0886,0.0163 0.26701,0.05 0.35559,0.0661 0.17094,0.36806 0.22834,0.77105 0.18465,1.17653 0.11227,0.006 0.33687,0.0174 0.45041,0.0238 0.004,-0.27324 0.0138,-0.54272 0.0274,-0.81098 -0.10736,-0.2358 -0.30193,-0.47536 -0.21336,-0.74609 0.0735,-0.17591 0.18465,-0.32938 0.29192,-0.48535 -0.007,-0.58391 0.1485,-1.1491 0.39928,-1.67184 -0.10981,-0.0649 -0.21586,-0.12852 -0.31941,-0.18965 -0.0636,-0.23207 -0.12476,-0.46289 -0.18091,-0.69244 -0.23581,0.0324 -0.46661,0.0661 -0.69619,0.10233 m -5.03929,0.62757 c -0.0374,0.0549 -0.11357,0.16343 -0.15223,0.21835 0.0686,0.6787 -0.11977,1.33622 -0.33435,1.97253 0.0911,0.0187 0.27447,0.0536 0.36679,0.0724 0.16844,0.37803 0.20839,0.79226 0.14849,1.20273 0.2483,0.0125 0.49907,0.0274 0.75356,0.0486 -0.19711,-0.39673 -0.0997,-0.80099 0.18716,-1.11538 -0.0138,-0.57518 0.16969,-1.1179 0.35934,-1.65191 -0.33312,-0.17341 -0.38429,-0.54772 -0.45668,-0.8746 -0.29441,0.0386 -0.58387,0.0811 -0.87208,0.12727 m -67.17635,0.31564 c 0.0562,2.16594 0.0599,4.33437 0.11228,6.5003 9.6e-4,0.18963 0.10852,0.2982 0.3219,0.32439 -0.035,-0.46538 -0.12602,-1.12789 0.42419,-1.33252 -0.20959,-0.54522 -0.34808,-1.11664 -0.33063,-1.70427 -0.31067,-0.34186 -0.33061,-0.82347 -0.0549,-1.18903 -0.0375,-0.58641 0.0549,-1.16905 0.2383,-1.72427 -0.49532,-0.17465 -0.50905,-0.73363 -0.55146,-1.1703 -0.12102,0.0636 -0.17344,0.16221 -0.15972,0.2957 m 2.80723,0.67001 c -0.0774,0.0261 -0.22956,0.0811 -0.30568,0.10736 0.19714,0.56144 0.3643,1.14035 0.33312,1.74298 0.10853,0.18964 0.28197,0.37304 0.26825,0.61134 -0.045,0.29695 -0.23581,0.55896 -0.2071,0.87088 0.015,0.48533 -0.12726,0.95194 -0.20962,1.4273 0.49407,0.26202 0.62508,0.93201 0.33561,1.3949 1.33625,0.0125 2.67123,0.0873 4.00748,0.0998 -0.0337,-0.37431 0.005,-0.7486 0.16094,-1.0917 0.0736,-0.0187 0.22208,-0.0562 0.29568,-0.0748 -0.21083,-0.56144 -0.37054,-1.14409 -0.34558,-1.74797 -0.13475,-0.22706 -0.35434,-0.48409 -0.22833,-0.76232 0.29944,-0.67622 0.0912,-1.45103 0.41048,-2.13099 -0.49409,-0.18093 -0.55397,-0.74985 -0.52404,-1.20151 -1.26884,-0.0105 -2.53647,-0.0924 -3.80409,-0.10607 -0.0399,0.28947 -0.10349,0.57642 -0.18712,0.8609 m 6.78975,-0.65005 c -0.0337,0.30069 -0.0935,0.5989 -0.18964,0.88834 -0.0761,0.0261 -0.22707,0.0799 -0.30194,0.10736 0.19715,0.56393 0.35932,1.14786 0.3344,1.75422 0.35558,0.3356 0.30941,0.83467 0.0324,1.20399 0.0935,0.57017 -0.0474,1.13287 -0.21211,1.67683 0.53274,0.20337 0.62632,0.88959 0.41299,1.3612 1.32376,0.005 2.64753,0.0474 3.97254,0.0786 -0.0661,-0.66502 0.33187,-1.28634 0.20087,-1.94884 -0.0549,-0.34686 -0.0774,-0.69745 -0.0848,-1.04428 -0.25576,0.0288 -0.5365,0.16593 -0.77605,0.0237 -0.51403,-0.25951 -0.82969,-0.96694 -0.52652,-1.4897 0.29571,-0.53649 0.75234,-0.95569 1.17155,-1.39488 -0.15222,-0.35933 -0.24329,-0.74111 -0.19713,-1.13162 -1.27886,-0.02 -2.5577,-0.0674 -3.83656,-0.0848 m 51.96244,0.32814 c -0.0462,0.35433 -0.10232,0.71118 -0.19465,1.05926 0.47037,0.2745 0.53776,0.93077 0.31816,1.39115 0.44538,0.0125 0.89205,0.0574 1.34246,0.0574 0.15597,0.0287 0.27074,-0.0935 0.38926,-0.17466 -0.0686,-0.59016 0.12352,-1.15284 0.35186,-1.68559 -0.10724,-0.0636 -0.21211,-0.12476 -0.31316,-0.18342 -0.0549,-0.22207 -0.1111,-0.44413 -0.15845,-0.66249 -0.58018,0.0611 -1.15658,0.14222 -1.73548,0.19836 m -36.20203,0.0574 c 0.0224,0.36558 0.0474,0.73363 0.0736,1.10169 0.44415,-0.0611 0.88832,-0.12725 1.33373,-0.1834 -0.0474,-0.30068 -0.0462,-0.60513 0.02,-0.90081 -0.47661,9.4e-4 -0.95321,-0.009 -1.42732,-0.0174 m 7.58075,0.16596 c -0.11977,0.24952 -0.23704,0.5003 -0.35558,0.75109 0.26325,0.007 0.52776,0.0174 0.79352,0.0313 -0.004,-0.26702 0.0138,-0.53651 0.13226,-0.77855 -0.1934,-0.004 -0.38304,-0.004 -0.5702,-0.004 m 5.10543,0.10853 c -0.0898,0.24202 -0.1934,0.48158 -0.26451,0.73236 0.0163,0.20337 0.24952,0.11602 0.39052,0.15222 0.65128,0.0212 1.3038,0.0375 1.95506,0.0986 -0.045,-0.32193 -0.0686,-0.65378 0.10736,-0.942 -0.72989,0.002 -1.45976,-0.03 -2.18838,-0.0412 m 18.2607,0.24455 c 0.36182,0.50905 0.10724,1.18901 -0.3743,1.51714 0.93199,0.0873 1.86774,0.11853 2.80348,0.17219 0.0105,-0.37804 0.0798,-0.7486 0.21085,-1.10169 -0.13099,-0.26203 -0.22207,-0.53901 -0.26574,-0.82596 -0.78852,0.11485 -1.58952,0.10607 -2.37429,0.23832 m -12.05409,-0.11005 c 0.0261,0.35558 -0.0811,0.69496 -0.22833,1.01435 0.98439,0.0636 1.97004,0.10735 2.95696,0.15346 -0.13351,-0.36807 -0.21087,-0.77229 0.004,-1.12415 -0.91078,-0.002 -1.8228,-0.0187 -2.73237,-0.0437 m 5.94882,0.11227 c 0.11729,0.41547 0.14974,0.85465 -0.11727,1.22519 1.03804,0.0374 2.0736,0.0973 3.11043,0.1672 -0.19215,-0.39927 -0.0562,-0.82346 0.0798,-1.2115 0.13225,-0.0486 0.27325,-0.0911 0.41046,-0.13599 -1.16154,-0.0288 -2.32311,-0.006 -3.48347,-0.045 m -199.786944,3.38746 c -5.615705,0.2907 -11.211446,0.89706 -16.782235,1.65938 -5.451015,0.74735 -10.878322,1.66189 -16.315612,2.5003 4.154697,1.17904 8.310643,2.36183 12.491542,3.44478 2.888327,0.67498 5.750452,1.44978 8.608837,2.23706 10.200844,2.78977 20.395444,5.59949 30.585067,8.42915 2.271983,0.61636 4.526498,1.29882 6.807216,1.87773 0.207112,-0.61635 0.522768,-1.23892 1.089204,-1.59575 0.62757,-0.3643 1.382405,-0.37305 2.087334,-0.38802 5.016826,0.0562 10.034906,0.0798 15.052976,0.0424 3.04804,-0.0313 6.09731,-0.007 9.14533,-0.0811 3.386145,-0.0312 6.773545,-0.03 10.158435,-0.10735 -0.21086,-0.136 -0.43294,-0.25576 -0.66375,-0.34808 -4.59888,-1.95634 -9.144105,-4.1123 -13.273835,-6.95071 -2.16094,-0.8222 -4.2383,-1.85527 -6.35931,-2.77728 -2.73362,-1.23019 -5.502172,-2.38428 -8.328108,-3.38739 -4.975651,-1.77666 -10.118503,-3.08793 -15.342442,-3.87147 -6.269476,-0.95945 -12.638766,-0.99314 -18.960649,-0.68372 z"
     id="path3"
     inkscape:connector-curvature="0"
     style="stroke-width:0.48177817" /></svg>